<?xml version="1.0" encoding="UTF-8" standalone="no"?>
<!-- Created with Inkscape (http://www.inkscape.org/) -->

<svg
   xmlns:dc="http://purl.org/dc/elements/1.1/"
   xmlns:cc="http://creativecommons.org/ns#"
   xmlns:rdf="http://www.w3.org/1999/02/22-rdf-syntax-ns#"
   xmlns:svg="http://www.w3.org/2000/svg"
   xmlns="http://www.w3.org/2000/svg"
   xmlns:sodipodi="http://sodipodi.sourceforge.net/DTD/sodipodi-0.dtd"
   xmlns:inkscape="http://www.inkscape.org/namespaces/inkscape"
   width="28.677296mm"
   height="26.181467mm"
   viewBox="0 0 28.677296 26.181467"
   version="1.1"
   id="svg118"
   inkscape:version="0.92.4 (unknown)"
   sodipodi:docname="feedbat icon.svg">
  <defs
     id="defs112" />
  <sodipodi:namedview
     id="base"
     pagecolor="#ffffff"
     bordercolor="#666666"
     borderopacity="1.0"
     inkscape:pageopacity="0.0"
     inkscape:pageshadow="2"
     inkscape:zoom="0.35"
     inkscape:cx="-390.09238"
     inkscape:cy="-27.666224"
     inkscape:document-units="mm"
     inkscape:current-layer="layer1"
     showgrid="false"
     fit-margin-top="0"
     fit-margin-left="0"
     fit-margin-right="0"
     fit-margin-bottom="0"
     inkscape:window-width="1853"
     inkscape:window-height="1025"
     inkscape:window-x="67"
     inkscape:window-y="27"
     inkscape:window-maximized="1" />
  <metadata
     id="metadata115">
    <rdf:RDF>
      <cc:Work
         rdf:about="">
        <dc:format>image/svg+xml</dc:format>
        <dc:type
           rdf:resource="http://purl.org/dc/dcmitype/StillImage" />
        <dc:title></dc:title>
      </cc:Work>
    </rdf:RDF>
  </metadata>
  <g
     inkscape:label="Layer 1"
     inkscape:groupmode="layer"
     id="layer1"
     transform="translate(-77.887538,-115.33185)">
    <path
       inkscape:connector-curvature="0"
       style="fill:#1773a3;fill-opacity:1;fill-rule:nonzero;stroke:none;stroke-width:0.35277778"
       d="m 94.487137,136.40257 c 1.44694,-0.72898 2.574178,-1.60541 3.458877,-2.78639 3.325206,-4.43866 1.577852,-10.11343 -3.672473,-11.90487 -3.292133,-1.12311 -6.9963,-0.12816 -9.249393,2.4846 -2.324749,2.69544 -2.344042,6.50985 -0.06477,9.56772 1.262281,1.69361 3.017904,2.55488 5.011925,3.01239 2.565908,0.58842 5.14973,0.47956 7.732173,0.15434 1.120344,-0.14194 2.075324,0.0386 2.725764,1.05696 0.24529,0.38171 0.38585,0.0303 0.51401,-0.0965 2.03122,-2.01056 3.32934,-4.41248 3.74413,-7.24986 0.54846,-3.74827 -0.48645,-7.02111 -3.09645,-9.76754 -1.996788,-2.09875 -4.496546,-3.26733 -7.325662,-3.71244 -3.717946,-0.58429 -7.179578,0.11851 -10.230556,2.37712 -2.268248,1.67845 -3.806141,3.88744 -4.186478,6.7386 -0.378961,2.83463 0.202572,5.43637 2.160764,7.63709 0.4079,0.45889 0.719335,1.00321 1.103807,1.48553 1.201649,1.50206 2.760211,2.497 4.551662,3.15157 0.176389,0.0648 0.376202,0.0827 0.571885,0.27836 -0.778591,-0.0441 -1.463477,-0.24115 -2.140095,-0.45337 -3.061998,-0.95774 -5.542467,-2.70922 -6.956337,-5.63342 -1.912715,-3.95772 -1.648132,-7.87549 0.887458,-11.48044 2.585198,-3.67798 6.28661,-5.5149 10.725271,-5.87182 4.258141,-0.34313 8.080816,0.82269 11.332991,3.61046 2.7988,2.40055 4.37527,5.48735 4.47311,9.19152 0.15159,5.81945 -2.53421,10.11756 -7.364238,13.18645 -0.100598,0.0634 -0.202572,0.18052 -0.330729,0.11575 -0.143316,-0.0717 -0.07579,-0.22049 -0.06339,-0.33486 0.04961,-0.49058 0.107488,-0.98117 0.166744,-1.47175 0.110243,-0.92328 -0.155719,-1.19889 -1.050064,-1.10381 -3.049598,0.32384 -6.089552,0.43547 -9.086787,-0.39549 -3.243902,-0.89986 -5.541092,-2.88975 -6.745497,-6.0427 -1.507575,-3.94257 -0.117133,-8.15799 3.451987,-10.67291 3.519509,-2.47909 8.483202,-2.47082 11.988931,0.0193 4.389063,3.1185 5.173163,8.96139 1.769403,13.18921 -0.09922,0.12402 -0.206706,0.24253 -0.297656,0.37207 -0.640789,0.91501 -1.488281,1.3987 -2.636189,1.33532 -0.569129,-0.0317 -1.141014,0.17776 -1.874132,0.0138"
       id="path88" />
    <path
       inkscape:connector-curvature="0"
       style="fill:#999999;fill-opacity:1;fill-rule:nonzero;stroke:none;stroke-width:0.35277778"
       d="m 87.157353,127.27169 c 0.202572,0.0207 0.237021,0.1819 0.278363,0.30179 0.16812,0.49885 0.509873,0.7276 1.029395,0.73725 0.308681,0.005 0.47818,0.14056 0.173634,0.3955 -0.423058,0.35553 -0.592558,0.7524 -0.420303,1.30086 0.08681,0.28113 -0.05926,0.43822 -0.333485,0.24943 -0.482314,-0.33073 -0.930176,-0.32797 -1.406976,0.006 -0.210841,0.14745 -0.410658,0.10473 -0.311439,-0.20671 0.184658,-0.58704 0,-1.01561 -0.465777,-1.37666 -0.170874,-0.13367 -0.212217,-0.34451 0.08131,-0.34726 0.650434,-0.006 1.058334,-0.29766 1.256771,-0.90813 0.0193,-0.0593 0.08131,-0.10611 0.118512,-0.15158"
       id="path90" />
    <path
       inkscape:connector-curvature="0"
       style="fill:#999999;fill-opacity:1;fill-rule:nonzero;stroke:none;stroke-width:0.35277778"
       d="m 90.547326,129.9437 c 0.21911,-0.48231 0.01792,-0.93017 -0.47818,-1.29811 -0.202572,-0.1502 -0.191548,-0.31557 0.09233,-0.32246 0.585667,-0.0179 0.999077,-0.23702 1.19338,-0.82682 0.101978,-0.31006 0.297656,-0.29904 0.39412,0.004 0.181903,0.56775 0.576019,0.78961 1.141017,0.81856 0.293522,0.0138 0.338995,0.19705 0.118509,0.36655 -0.463021,0.35416 -0.588419,0.77859 -0.435458,1.33808 0.08406,0.31005 -0.122647,0.39963 -0.356913,0.22462 -0.48369,-0.36518 -0.927421,-0.29215 -1.391817,0.0262 -0.248049,0.1695 -0.356913,0.0785 -0.276987,-0.33073"
       id="path92" />
    <path
       inkscape:connector-curvature="0"
       style="fill:#999999;fill-opacity:1;fill-rule:nonzero;stroke:none;stroke-width:0.35277778"
       d="m 94.897792,129.99882 c 0.242535,-0.49884 0.03172,-0.94809 -0.445107,-1.33531 -0.202568,-0.16399 -0.129533,-0.33625 0.119892,-0.34038 0.602202,-0.0138 0.979784,-0.28525 1.176845,-0.85852 0.106109,-0.3073 0.288008,-0.22462 0.372068,0.0221 0.188792,0.5526 0.559484,0.81442 1.139638,0.83647 0.254938,0.01 0.31695,0.19568 0.114378,0.34313 -0.519522,0.38034 -0.580154,0.86403 -0.431328,1.44005 0.07304,0.27975 -0.103349,0.33073 -0.289387,0.18053 -0.507118,-0.40928 -0.982539,-0.35829 -1.482767,0.008 -0.199817,0.14745 -0.334864,0.0786 -0.274232,-0.29628"
       id="path94" />
  </g>
</svg>
